<svg width="1903" height="1948" viewBox="0 0 1903 1948" fill="none" xmlns="http://www.w3.org/2000/svg">
<path d="M1024.3 412.974C1024.3 412.974 1436.54 477.476 1405.28 1064.9C1405.16 1067.07 1452.94 1098.8 1456.68 1102.18C1490 1132.32 1517.95 1170.91 1530.18 1216.05C1573.7 1376.79 1418.09 1542.42 1292.25 1586.39C1245.25 1602.81 1195.56 1610.78 1145.78 1612.23C822.172 1621.65 393.729 1415.97 371.724 1014.29C370.936 999.874 370.742 985.446 371.113 971.052C373.063 894.782 391.471 820.502 419.214 751.534C419.202 751.536 599.305 304.808 1024.3 412.974Z" fill="#A47539"/>
<path opacity="0.3" d="M1209.49 1099.79C1209.49 1099.79 1274.89 1037.57 1325.51 1096.07L1209.49 1099.79Z" fill="#633B1D"/>
<path d="M599.741 1409.91C382.17 1518.96 184.564 1245.29 247.77 1091.5C288.089 993.407 405.75 985.812 473.964 1075.44C514.221 1128.34 546.806 1195.96 565.316 1260.63" fill="#A47539"/>
<path opacity="0.3" d="M420.424 1165.7C448.435 1194.21 470.958 1236.49 498.632 1260.08C493.503 1220.62 485.327 1178.48 466.157 1142.92C446.692 1106.8 411.308 1077.04 375.291 1079.48C330.655 1082.51 293.923 1134.51 289.215 1181.66C292.029 1153.44 348.76 1134.36 370.418 1137.04C404.354 1201 417.531 1327.03 417.531 1327.03C445.755 1255.69 434.297 1199.57 420.424 1165.7Z" fill="#633B1D"/>
<path d="M1280.53 1250.43C1309.85 1251.24 1337.96 1242.85 1362.16 1217.68C1374.83 1204.53 1387.68 1197.28 1405.85 1208.54C1449.37 1235.49 1459.61 1302.83 1447.92 1347.98C1435.07 1397.52 1396.39 1437.46 1351.81 1463.52C1231.84 1533.61 1139.82 1517.84 1017.06 1473.03C920.436 1437.77 789.798 1366.69 822.913 1244.35C863.92 1092.89 1040.65 1165.61 1140.37 1206.47C1182.71 1223.83 1233.19 1249.11 1280.53 1250.43Z" fill="white"/>
<mask id="mask0_8_541" style="mask-type:alpha" maskUnits="userSpaceOnUse" x="817" y="1152" width="636" height="360">
<path d="M1280.53 1250.43C1309.85 1251.24 1337.96 1242.85 1362.16 1217.68C1374.83 1204.53 1387.68 1197.28 1405.85 1208.54C1449.37 1235.49 1459.61 1302.83 1447.92 1347.98C1435.07 1397.52 1396.39 1437.46 1351.81 1463.52C1231.84 1533.61 1139.82 1517.84 1017.06 1473.03C920.436 1437.77 789.798 1366.69 822.913 1244.35C863.92 1092.89 1040.65 1165.61 1140.37 1206.47C1182.71 1223.83 1233.19 1249.11 1280.53 1250.43Z" fill="white"/>
</mask>
<g mask="url(#mask0_8_541)">
<path fill-rule="evenodd" clip-rule="evenodd" d="M880.3 1418.67L1005.89 1101.62L1023.37 1108.55L897.781 1425.6L880.3 1418.67ZM1138.35 1521.11L1225.09 1188.43L1243.29 1193.18L1156.55 1525.86L1138.35 1521.11ZM1396.52 1440.79L1348.66 1196.88L1367.11 1193.26L1414.98 1437.16L1396.52 1440.79Z" fill="#D1D3D4"/>
</g>
<path d="M1147.77 981.993C1147.68 1028.28 1118.53 1065.86 1057.96 1058.18C1014.36 1048.52 991.307 1030.52 991.402 981.974C991.501 931.109 1015.62 897.365 1058.29 890.55C1123.74 880.096 1147.86 935.702 1147.77 981.993Z" fill="#2A1200"/>
<path d="M1386.67 970.927C1386.61 1007.84 1371.52 1047.48 1332.89 1042.93C1300.48 1039.11 1292.2 992.009 1292.23 968.823C1292.3 928.267 1310.65 889.949 1337.44 889.888C1366.24 889.822 1386.73 934.018 1386.67 970.927Z" fill="#2A1200"/>
<path d="M1335.35 910.363C1335.61 909.368 1336.98 909.287 1337.26 910.25L1348.14 947.079C1348.28 947.539 1348.73 947.82 1349.2 947.747L1370.99 944.405C1371.81 944.28 1372.38 945.155 1371.95 945.885L1356.1 972.841C1355.95 973.09 1355.92 973.385 1356 973.653L1366.83 1010.34C1367.13 1011.34 1365.88 1012.12 1365.16 1011.39L1346.05 992.011C1345.64 991.598 1344.95 991.649 1344.57 992.12L1321.27 1020.91C1320.64 1021.68 1319.45 1021.24 1319.52 1020.27L1322.36 980.429C1322.38 980.145 1322.28 979.871 1322.09 979.675L1301.08 958.371C1300.51 957.794 1300.87 956.777 1301.69 956.651L1323.62 953.287C1324.03 953.224 1324.37 952.914 1324.48 952.506L1335.35 910.363Z" fill="white"/>
<path d="M1071.63 909.029C1071.97 908.201 1073.14 908.2 1073.48 909.028L1090.92 951.47C1091.1 951.888 1091.53 952.139 1091.98 952.081L1129.49 947.275C1130.41 947.157 1130.98 948.236 1130.37 948.928L1103.16 979.776C1102.91 980.061 1102.84 980.465 1102.99 980.817L1120.16 1022.59C1120.53 1023.51 1119.49 1024.35 1118.67 1023.8L1085.22 1001.25C1084.85 1001 1084.36 1001.02 1084.02 1001.31L1042.43 1036.16C1041.73 1036.75 1040.67 1036.17 1040.79 1035.26L1046.98 989.795C1047.03 989.418 1046.86 989.044 1046.55 988.831L1012.45 965.839C1011.68 965.323 1011.96 964.135 1012.88 964.017L1050.58 959.188C1050.93 959.142 1051.24 958.907 1051.38 958.574L1071.63 909.029Z" fill="white"/>
<path d="M1110.88 791.168C1069.23 778.788 1021.62 788.832 986.883 817.146C975.683 826.275 970.557 844.359 979.359 857.421C987.488 869.503 1004.38 875.05 1016.37 865.263C1019.97 862.329 1023.68 859.588 1027.56 857.104C1028.77 856.33 1032 855.097 1033.13 853.87C1033.7 853.588 1034.27 853.305 1034.85 853.035C1038.46 851.36 1042.15 849.874 1045.89 848.579C1048.03 847.839 1050.19 847.174 1052.36 846.56C1053.04 846.37 1053.73 846.193 1054.42 846.016C1056.27 845.933 1058.47 845.221 1060.18 844.982C1062.41 844.67 1064.63 844.432 1066.87 844.257C1070.78 843.954 1074.71 843.85 1078.62 843.957C1079.17 843.972 1079.71 843.999 1080.25 844.026C1082.34 844.304 1084.42 844.532 1086.5 844.885C1090.92 845.64 1095.28 846.703 1099.59 847.976C1113.05 851.982 1129.04 840.278 1131.35 825.466C1133.88 809.157 1125.3 795.459 1110.88 791.168Z" fill="#451E00"/>
<path d="M1397.69 823.109C1377.44 806.031 1351.85 797.86 1326.91 799.811C1320.18 800.338 1313.24 804.681 1309.26 810.244C1305.34 815.722 1303.01 824.247 1304.31 831.351C1305.65 838.725 1309.01 846.167 1314.95 850.76C1320.98 855.417 1327.65 857.672 1334.96 857.11C1336.16 857.014 1337.36 857.063 1338.57 857.03C1342.23 857.361 1345.85 857.995 1349.45 858.897C1353.68 860.456 1357.76 862.405 1361.71 864.74C1363.04 865.725 1364.43 866.64 1365.72 867.72C1371.27 872.392 1378.91 874.81 1385.73 874.07C1392.26 873.361 1399.62 869.389 1403.38 863.625C1407.27 857.658 1409.72 850.116 1408.33 842.518C1406.96 834.944 1403.56 828.055 1397.69 823.109Z" fill="#451E00"/>
<path d="M364.439 968.62C364.029 983.035 364.19 997.481 364.952 1011.91C485.776 1031.92 542.709 1159.85 556.073 1221.32C556.073 1221.32 592.033 1223.32 600.512 1216.51C644.996 1193.4 724.245 1098.9 685.368 905.776C666.543 817.996 679.408 748.038 835.171 638.8C990.934 529.561 1238.29 597.048 1288.97 637.702C1329.51 670.224 1333.81 675.19 1346.06 683.028C1238.23 440.066 1026.44 408.173 1026.44 408.173C596.869 300.899 413.616 748.684 413.628 748.681C385.399 817.813 366.6 892.24 364.439 968.62Z" fill="black"/>
</svg>
