<?xml version="1.0" standalone="no"?>
<!DOCTYPE svg PUBLIC "-//W3C//DTD SVG 20010904//EN"
 "http://www.w3.org/TR/2001/REC-SVG-20010904/DTD/svg10.dtd">
<svg version="1.0" xmlns="http://www.w3.org/2000/svg"
 width="720.000000pt" height="960.000000pt" viewBox="0 0 720.000000 960.000000"
 preserveAspectRatio="xMidYMid meet">
<metadata>
Created by potrace 1.16, written by Peter Selinger 2001-2019
</metadata>
<g transform="translate(0.000000,960.000000) scale(0.100000,-0.100000)"
fill="#000000" stroke="none">
<path d="M0 6220 c0 -1859 2 -3380 4 -3380 2 0 23 30 46 67 184 290 218 331
303 359 39 13 71 15 139 11 l89 -6 35 55 c70 109 276 294 345 309 31 7 50 32
33 44 -6 3 -24 35 -42 69 -29 57 -32 73 -32 148 0 47 5 106 11 132 22 88 159
243 281 316 140 84 219 136 245 161 139 131 410 314 638 430 33 16 62 33 65
36 3 3 22 12 43 20 21 7 42 18 47 24 4 5 -2 74 -16 155 -33 202 -29 190 -68
190 -49 0 -94 26 -167 99 -123 123 -206 358 -216 611 -5 120 -24 223 -44 235
-27 18 10 69 57 78 34 6 92 -25 158 -85 17 -15 36 -28 44 -28 7 0 23 -23 34
-50 13 -32 25 -47 30 -42 6 6 6 18 -1 31 -7 11 -11 36 -9 54 1 18 -2 39 -6 46
-7 11 -4 11 15 1 20 -10 22 -10 12 1 -15 15 -17 33 -3 24 15 -9 24 45 10 58
-10 9 -12 8 -7 -5 9 -27 -12 -32 -22 -6 -9 21 -10 20 -10 -11 -1 -54 -10 -31
-13 33 -1 36 -7 60 -15 63 -7 3 -13 12 -13 19 0 8 -7 26 -16 39 -22 34 -51
152 -48 200 1 22 -3 46 -8 53 -8 9 -7 20 1 39 l12 26 22 -22 c45 -41 95 -59
141 -49 131 29 217 15 189 -30 -10 -17 -9 -18 12 -14 13 2 31 -1 42 -7 17 -10
16 -10 -4 -11 -30 0 -29 -12 2 -30 26 -17 22 -36 -10 -42 -28 -5 -95 -76 -117
-125 -10 -22 -21 -62 -24 -87 -8 -56 6 -60 45 -16 19 22 38 32 66 35 22 3 54
8 70 12 53 11 189 4 200 -11 6 -7 21 -16 34 -21 17 -5 20 -10 12 -18 -19 -19
-13 -45 12 -49 13 -2 -5 -10 -48 -21 -94 -25 -175 -63 -203 -95 -34 -39 -58
-92 -57 -129 0 -18 -3 -33 -8 -33 -4 0 -5 -4 -2 -10 9 -15 85 -13 85 3 0 6 16
17 37 24 33 10 38 9 62 -13 29 -27 37 -29 46 -13 5 7 12 4 20 -9 12 -16 21
-18 64 -12 50 6 73 -4 29 -13 -13 -2 -4 -5 20 -6 47 -1 53 -12 20 -35 -25 -18
-53 -21 -43 -6 3 6 1 10 -4 10 -6 0 -11 -7 -11 -15 0 -8 -14 -22 -31 -30 -51
-27 -31 -40 57 -36 43 1 82 7 85 12 3 5 14 8 25 7 28 -3 104 13 104 22 0 4 9
10 20 13 11 3 20 1 20 -4 0 -5 9 -9 20 -9 11 0 20 7 20 15 0 11 12 15 43 16
23 1 34 3 25 6 -15 4 -15 6 3 24 10 10 22 19 25 19 3 0 19 9 35 21 16 11 29
17 29 14 0 -4 14 8 31 25 18 17 37 29 44 26 9 -3 11 2 7 16 -3 14 -1 19 6 14
9 -5 12 6 12 38 0 25 -4 48 -10 51 -5 3 -10 21 -10 40 0 24 -9 42 -30 63 -33
33 -38 44 -16 36 8 -3 17 -1 21 5 3 6 1 11 -4 11 -16 0 -13 27 8 88 10 28 14
52 9 52 -5 0 -7 9 -3 19 4 13 -1 24 -15 34 -11 8 -20 21 -18 28 2 10 -6 14
-27 12 -16 0 -24 1 -17 4 8 3 12 26 12 64 0 48 3 57 15 53 8 -4 15 -2 15 4 0
6 3 17 6 26 5 12 0 16 -22 16 l-29 0 38 31 c20 17 37 37 37 45 0 11 6 13 20 9
16 -5 23 0 35 29 8 19 12 41 9 49 -3 8 -1 18 5 22 6 3 14 -1 17 -10 9 -23 49
-36 76 -25 19 7 16 9 -19 9 -43 1 -57 14 -27 25 8 3 13 10 9 15 -3 6 6 18 20
27 24 16 26 15 45 -7 18 -23 19 -23 21 -4 1 11 2 25 4 30 1 6 3 17 3 24 4 32
24 -8 32 -60 5 -37 8 -44 9 -22 1 29 3 31 29 24 26 -7 46 -51 23 -51 -6 0 -11
-4 -11 -10 0 -5 9 -10 20 -10 14 0 20 -7 20 -22 1 -21 2 -21 11 -5 6 9 14 15
20 12 16 -10 10 -43 -8 -48 -10 -2 -1 -2 20 0 23 3 37 1 37 -6 0 -6 -9 -11
-20 -11 -23 0 -28 -38 -8 -58 9 -9 7 -16 -6 -31 -16 -18 -25 -65 -26 -138 0
-12 -5 -25 -10 -28 -6 -3 -10 -1 -10 4 0 6 -18 11 -40 11 -22 0 -40 5 -40 10
0 6 18 10 40 10 34 0 40 3 40 20 0 18 -3 19 -20 10 -13 -7 -26 -7 -38 -1 -31
17 -52 -10 -52 -67 0 -28 4 -53 9 -56 5 -4 12 -24 16 -46 4 -22 10 -40 13 -40
4 0 13 -13 20 -30 8 -18 21 -30 33 -30 10 0 19 -6 19 -13 0 -7 9 -20 20 -30
11 -9 20 -27 20 -40 0 -13 16 -47 35 -77 19 -30 35 -61 35 -67 0 -7 5 -13 10
-13 6 0 10 -9 10 -20 0 -11 -4 -20 -10 -20 -5 0 -10 -7 -10 -16 0 -18 39 -113
76 -185 13 -26 24 -54 24 -63 0 -9 5 -16 10 -16 6 0 10 -22 10 -49 0 -85 8
-96 89 -111 83 -15 113 -41 132 -112 10 -38 10 -49 0 -62 -10 -11 -17 -13 -26
-6 -6 5 -15 7 -18 3 -4 -3 -7 2 -7 12 0 17 -1 17 -20 0 -11 -10 -28 -15 -39
-12 -15 4 -20 -2 -26 -29 -5 -30 -10 -34 -36 -34 -35 0 -36 19 -2 35 29 13 38
66 18 105 -8 16 -22 30 -30 30 -8 0 -17 14 -21 35 -3 19 -10 35 -15 35 -5 0
-12 19 -16 42 -6 43 -6 43 -16 14 -7 -21 -12 -25 -18 -15 -6 10 -9 6 -9 -13 0
-19 5 -28 16 -28 8 0 12 -5 9 -10 -9 -15 -35 7 -35 28 0 10 -3 12 -9 7 -13
-15 11 -107 26 -101 7 3 15 1 18 -4 3 -5 -4 -11 -15 -15 -11 -3 -20 -15 -20
-26 0 -13 -13 -25 -37 -37 -21 -9 -40 -19 -43 -22 -3 -3 -12 -5 -20 -5 -16 0
-27 -37 -29 -95 -1 -35 -19 -60 -55 -73 -10 -4 -20 -16 -23 -27 -6 -22 -29
-30 -61 -18 -25 9 -39 -10 -28 -37 3 -8 0 -15 -6 -15 -6 0 -16 -7 -23 -17 -10
-13 -9 -22 1 -42 8 -14 14 -32 14 -38 0 -7 4 -13 9 -13 5 0 7 -9 4 -20 -4 -16
2 -23 26 -31 17 -6 31 -14 31 -18 0 -11 72 -34 79 -25 9 12 133 16 126 4 -4
-6 -13 -10 -20 -10 -8 0 -23 -7 -33 -16 -14 -12 -50 -16 -153 -20 -133 -4
-172 -11 -344 -64 -119 -36 -165 -44 -195 -33 -18 7 -33 7 -44 1 -10 -6 -27
-8 -38 -5 -11 3 -17 3 -14 0 3 -3 -6 -15 -20 -25 -18 -14 -24 -28 -22 -47 3
-22 8 -26 39 -29 20 -2 45 -12 54 -22 13 -15 22 -17 42 -9 26 10 58 5 113 -16
19 -8 67 -16 105 -18 39 -3 115 -19 170 -36 55 -18 123 -39 150 -48 34 -10 85
-15 160 -14 114 1 150 -8 127 -31 -6 -6 -12 -19 -12 -28 0 -21 -36 -64 -44
-52 -3 5 -20 5 -41 -2 -26 -8 -33 -15 -29 -28 3 -12 0 -18 -10 -18 -9 0 -16 5
-16 10 0 20 -28 10 -35 -12 -4 -14 -8 -18 -12 -10 -5 12 -60 17 -87 6 -20 -8
-3 -44 22 -45 15 0 15 -1 -1 -8 -10 -4 -19 -11 -20 -16 -1 -6 -14 -9 -29 -9
-28 2 -34 -9 -22 -40 3 -9 12 -16 20 -16 8 0 14 -6 14 -13 0 -23 25 -67 35
-63 6 2 9 9 7 15 -1 8 4 7 18 -1 l21 -13 -21 -14 c-32 -21 -26 -44 10 -39 17
3 30 1 30 -4 0 -4 8 -8 19 -8 10 0 24 -7 31 -15 17 -20 30 -19 30 2 0 13 3 14
12 5 9 -9 9 -15 0 -24 -9 -9 3 -21 56 -51 37 -22 77 -43 90 -48 12 -5 22 -13
22 -19 0 -5 7 -10 15 -10 8 0 22 -16 31 -35 21 -45 74 -103 74 -82 0 30 63 32
82 3 13 -19 9 -26 -16 -26 -14 0 -28 -4 -31 -10 -8 -14 -48 -13 -63 2 -9 9
-14 6 -21 -13 -5 -13 -10 -18 -10 -10 -1 8 -15 -2 -32 -22 -26 -31 -35 -35
-60 -30 -18 3 -29 1 -29 -6 0 -6 5 -11 10 -11 6 0 10 -4 10 -10 0 -5 -13 -10
-30 -10 -19 0 -30 -5 -30 -14 0 -16 -63 -25 -101 -15 -24 6 -24 6 -3 15 19 8
20 11 8 22 -9 8 -14 9 -14 2 0 -7 -12 -10 -29 -8 -16 1 -36 -4 -45 -11 -13
-11 -19 -11 -31 -1 -11 9 -21 7 -46 -11 -33 -24 -26 -39 10 -20 46 25 31 -31
-21 -77 -16 -13 -28 -28 -28 -33 0 -12 57 -12 65 1 7 12 45 14 45 3 0 -5 41
-8 90 -8 58 0 93 -4 98 -12 4 -6 24 -14 44 -18 50 -10 60 -24 63 -96 2 -44 7
-65 19 -71 9 -5 16 -18 16 -29 0 -16 -6 -19 -37 -17 -22 1 -45 11 -59 25 -13
13 -28 23 -34 23 -5 0 -11 10 -11 23 -1 16 -2 18 -6 5 -10 -38 -128 -13 -145
29 -6 15 -7 15 -7 -4 -1 -20 -6 -23 -45 -23 -37 0 -50 6 -79 35 -19 19 -34 35
-34 36 1 0 13 3 26 5 14 2 27 7 30 10 5 5 -63 74 -73 74 -3 0 -15 9 -26 20
-24 24 -40 26 -40 5 0 -10 -10 -15 -29 -15 -43 0 -91 -11 -91 -21 0 -5 7 -9
15 -9 8 0 15 -4 15 -10 0 -5 -7 -10 -15 -10 -8 0 -15 -4 -15 -10 0 -5 7 -10
15 -10 8 0 15 -4 15 -10 0 -5 -7 -10 -15 -10 -41 0 12 -35 83 -55 17 -5 22
-14 22 -42 0 -30 -2 -34 -15 -23 -8 7 -15 19 -15 26 0 8 -5 14 -11 14 -13 0
-3 -69 12 -84 5 -6 9 -25 9 -43 0 -18 5 -33 10 -33 6 0 10 -7 10 -15 0 -11
-11 -15 -40 -15 -29 0 -40 4 -40 15 0 12 -5 13 -27 4 -28 -10 -106 -3 -99 10
3 4 -8 20 -25 35 -16 15 -29 32 -29 37 0 5 -11 9 -24 9 -18 0 -25 7 -29 29 -6
31 -26 38 -115 45 -34 2 -52 11 -85 42 -54 51 -57 55 -57 83 0 16 -4 21 -14
18 -9 -4 -17 1 -19 11 -3 11 -5 8 -6 -8 l-2 -25 -14 27 c-8 15 -16 36 -18 48
-2 12 -8 25 -14 28 -20 13 -84 186 -92 252 -5 36 -9 119 -10 185 0 66 -6 163
-12 215 -11 88 -15 100 -62 172 l-50 77 -76 -7 c-42 -4 -124 -7 -184 -7 -59 0
-107 -3 -107 -7 0 -8 28 -12 67 -9 11 1 24 -3 28 -8 4 -8 -25 -11 -92 -11
-119 0 -170 -18 -291 -102 -45 -32 -85 -58 -88 -58 -4 0 -32 -24 -63 -53 -33
-30 -96 -71 -147 -97 -49 -24 -101 -53 -116 -64 -15 -10 -39 -19 -54 -20 -22
-1 -29 -8 -41 -40 -17 -52 -40 -76 -71 -76 -19 0 -23 -4 -17 -17 16 -41 24
-75 19 -88 -4 -9 4 -16 23 -21 15 -4 56 -24 90 -45 34 -22 66 -39 71 -39 4 0
30 -23 57 -51 91 -93 213 -197 291 -247 28 -18 59 -41 69 -52 30 -34 55 -20
55 29 0 10 15 35 33 56 l33 38 44 -46 c43 -47 70 -59 70 -33 0 8 -50 66 -111
128 -62 62 -129 135 -150 161 -37 46 -39 53 -39 115 0 83 17 188 36 226 8 16
14 35 14 41 0 7 11 28 24 48 13 19 22 38 19 41 -3 3 -3 15 0 28 7 26 99 128
116 128 6 0 11 4 11 9 0 5 20 19 45 31 92 44 408 38 447 -10 19 -24 13 -67 -7
-50 -10 8 -20 3 -39 -23 -33 -43 -33 -55 4 -94 17 -18 30 -36 30 -41 0 -5 7
-22 15 -38 8 -16 21 -59 30 -94 9 -36 20 -73 26 -83 5 -9 12 -42 14 -72 3 -30
16 -81 29 -113 28 -66 72 -211 80 -263 5 -27 21 -51 64 -92 74 -72 125 -117
135 -117 4 0 7 -4 7 -10 0 -5 10 -20 23 -33 27 -29 43 -49 87 -110 32 -45 82
-87 175 -148 48 -31 188 -137 229 -174 17 -14 41 -28 55 -31 38 -7 103 -25
126 -34 11 -4 40 -15 65 -25 110 -42 152 -64 253 -134 111 -76 112 -79 108
-148 -3 -39 10 -42 36 -10 15 19 48 50 168 157 57 51 355 627 355 688 0 7 4
20 9 30 5 9 17 40 26 67 15 48 26 91 61 252 8 39 15 115 15 167 -1 78 -5 104
-24 143 -20 42 -23 65 -24 182 -1 74 -5 146 -7 160 -4 18 5 42 29 81 20 30 38
63 41 73 12 32 30 17 70 -54 32 -59 46 -75 82 -91 69 -33 71 -40 69 -235 -2
-116 1 -169 8 -162 5 5 12 102 16 222 3 117 9 220 14 230 5 13 14 17 29 12 11
-3 27 -7 34 -8 18 -3 50 92 62 183 7 54 19 89 41 124 25 41 29 54 20 73 -6 13
-14 23 -19 23 -16 0 -35 77 -28 113 3 19 15 42 26 52 18 17 20 16 34 -16 l14
-34 1 37 c1 54 -13 83 -51 99 -39 16 -137 16 -147 0 -4 -7 -15 -9 -24 -5 -10
3 -17 1 -17 -5 0 -6 -11 -11 -25 -11 -14 0 -25 -6 -25 -12 0 -9 17 -13 50 -13
31 0 50 4 50 11 0 13 30 28 38 19 3 -3 -2 -13 -12 -23 -9 -9 -22 -25 -29 -34
-9 -13 -21 -15 -52 -9 -48 8 -68 -11 -79 -76 -3 -23 -11 -54 -17 -70 -6 -15
-13 -41 -16 -58 -8 -58 -9 -65 -16 -71 -4 -4 -7 16 -7 44 0 43 -3 52 -17 52
-11 1 -7 6 11 13 l29 13 -41 12 c-23 7 -42 18 -42 24 0 6 3 8 7 5 3 -4 12 -2
20 4 14 12 17 46 7 73 -11 29 -24 16 -24 -24 0 -22 -3 -40 -7 -40 -5 0 -8 37
-9 83 0 45 1 67 3 50 4 -30 23 -48 23 -22 0 5 14 15 30 20 26 10 30 16 30 49
0 21 3 52 6 70 6 27 4 31 -12 28 -13 -2 -20 4 -22 20 -2 15 2 22 12 22 22 0
23 85 1 94 -16 6 -15 24 7 99 6 20 8 40 4 44 -8 8 -41 -29 -56 -62 -8 -18 -9
-17 -9 8 -1 15 -5 27 -10 27 -6 0 -7 -16 -4 -35 3 -19 2 -42 -2 -52 -5 -10 -9
-24 -9 -32 -2 -24 -33 -37 -56 -23 -11 6 -22 12 -26 12 -3 0 -3 -39 1 -87 5
-72 4 -92 -9 -108 -15 -19 -16 -15 -10 48 5 47 3 67 -5 67 -6 0 -11 -9 -11
-21 0 -33 -17 -13 -29 34 -6 25 -17 50 -26 57 -8 7 -15 18 -15 25 0 6 -12 17
-26 24 -19 8 -25 17 -21 31 4 15 0 20 -13 20 -21 0 -85 63 -70 68 16 6 11 49
-6 56 -9 3 -14 13 -11 20 8 20 -40 69 -60 62 -9 -4 -25 4 -41 19 -13 14 -28
25 -32 25 -4 0 -5 11 -3 24 4 21 2 23 -21 19 -19 -4 -26 -1 -26 10 0 21 -27
42 -33 25 -3 -8 -9 -2 -16 15 -6 15 -18 27 -28 27 -32 1 -77 49 -79 86 -5 53
28 64 93 33 30 -15 51 -18 77 -13 20 3 36 10 36 14 0 4 11 5 25 2 18 -3 25 0
25 11 0 21 20 33 30 17 13 -21 80 6 80 33 0 29 55 62 98 58 33 -3 40 7 20 27
-9 9 -8 12 6 12 9 0 14 -4 11 -10 -3 -5 3 -10 13 -10 11 0 22 7 26 15 3 8 10
15 16 15 5 0 10 -7 10 -15 0 -24 20 -17 30 10 5 14 14 25 20 25 11 0 13 -13 3
-24 -26 -26 -4 -53 47 -58 27 -2 36 -8 38 -25 3 -19 10 -23 43 -23 45 0 51 12
48 100 -1 30 -2 81 -1 113 2 74 22 67 22 -8 0 -30 4 -56 9 -60 5 -3 12 -19 16
-35 4 -17 10 -30 15 -30 15 0 24 -90 11 -103 -9 -9 -14 -9 -20 2 -6 8 -12 -9
-20 -50 -6 -35 -7 -67 -3 -71 14 -14 40 24 49 72 7 36 13 46 31 48 21 3 22 0
22 -57 0 -34 4 -61 9 -61 12 0 71 71 71 85 0 5 7 23 16 40 15 30 12 90 -5 97
-5 2 -5 26 -1 53 4 28 4 61 -1 73 -5 13 -7 28 -3 33 3 5 1 9 -5 9 -5 0 -15 16
-21 35 -10 31 -24 41 -52 36 -5 0 -8 4 -8 9 0 6 -8 10 -18 10 -10 0 -21 2 -24
5 -7 7 25 71 48 96 16 18 19 16 55 -55 35 -68 56 -141 62 -211 1 -20 7 -4 16
45 16 86 25 104 28 55 2 -41 41 -115 60 -115 18 0 17 4 -17 95 -16 44 -30 89
-29 100 0 11 6 1 14 -23 7 -23 17 -48 23 -55 10 -12 26 -81 37 -154 8 -54 -9
-107 -41 -127 -13 -9 -24 -12 -24 -6 0 5 4 10 9 10 5 0 11 9 14 20 3 13 0 20
-9 20 -15 0 -17 67 -2 76 4 3 5 11 1 17 -4 7 -8 17 -9 24 -1 6 -9 22 -18 35
-18 26 -17 32 -21 -102 -3 -82 -8 -107 -40 -185 -20 -49 -43 -97 -51 -106 -8
-8 -14 -20 -14 -25 0 -19 -77 -93 -118 -114 l-43 -22 1 -197 c1 -108 6 -201
11 -207 6 -8 37 -10 93 -7 158 10 256 -44 304 -170 27 -69 50 -184 56 -282 4
-43 9 -82 14 -86 7 -8 35 1 138 45 33 14 108 35 165 46 57 12 138 32 179 45
41 13 102 28 135 34 96 17 107 20 370 92 22 6 49 15 60 20 57 24 335 110 398
123 117 25 266 63 352 91 43 14 96 28 117 31 l38 7 0 2228 0 2229 -1424 0
c-1035 0 -1427 -3 -1432 -11 -10 -17 17 -30 58 -27 34 3 37 1 41 -27 18 -109
75 -298 116 -390 10 -22 22 -65 26 -95 10 -80 53 -300 80 -415 17 -70 27 -157
35 -290 6 -104 14 -198 16 -208 3 -10 19 -20 35 -24 16 -3 29 -10 29 -15 0 -6
8 -22 18 -36 27 -39 46 -116 39 -158 -4 -24 -1 -47 9 -67 16 -30 16 -30 -10
-23 -24 6 -26 4 -26 -23 0 -16 11 -80 24 -143 14 -62 26 -139 27 -171 2 -40 9
-67 21 -83 17 -20 17 -24 4 -24 -18 0 -22 -35 -6 -45 6 -3 10 -12 9 -18 0 -9
-2 -8 -6 1 -2 6 -9 9 -15 6 -5 -3 -12 4 -15 16 -4 17 -11 21 -30 17 -33 -6
-60 32 -43 62 6 12 18 21 27 21 12 0 8 9 -17 35 -37 38 -57 46 -41 16 8 -14 7
-20 -3 -24 -9 -4 -12 -14 -9 -26 3 -12 9 -18 14 -15 15 9 10 -16 -6 -32 -8 -8
-12 -21 -8 -30 3 -8 0 -34 -7 -58 -6 -23 -12 -57 -13 -76 -2 -36 -27 -56 -27
-21 0 11 4 22 9 25 9 6 26 189 22 241 -9 111 -149 229 -351 294 -115 36 -193
44 -367 37 -148 -6 -163 -5 -163 10 0 14 8 16 53 12 62 -6 127 11 106 29 -22
18 -204 16 -219 -2 -7 -8 -16 -12 -22 -9 -5 3 -14 1 -21 -4 -7 -6 -34 -17 -62
-25 -33 -9 -50 -20 -50 -30 0 -9 -18 -31 -39 -49 -134 -113 -141 -146 -71
-321 64 -159 27 -218 -40 -66 -11 24 -30 55 -42 69 -13 14 -23 28 -23 33 0 4
-25 20 -56 34 -80 36 -131 27 -193 -35 -42 -42 -111 -160 -111 -190 0 -17 -20
-15 -26 2 -3 8 6 58 21 110 35 132 35 194 -1 241 -26 35 -103 95 -121 95 -4 0
20 -26 54 -58 70 -66 84 -104 64 -181 -7 -25 -19 -80 -27 -121 -44 -216 -87
-323 -157 -398 -108 -115 -438 -182 -627 -128 -104 30 -147 32 -181 7 -24 -18
-32 -19 -49 -9 -11 7 -20 20 -20 30 0 23 63 70 84 62 9 -3 16 -1 16 5 0 6 -6
11 -14 11 -26 0 -43 45 -49 135 -4 50 -13 166 -22 260 l-15 169 23 24 c21 24
91 74 165 119 20 12 55 25 77 29 22 3 46 11 53 17 7 5 38 16 70 23 54 13 55
13 11 9 -46 -4 -210 -52 -219 -64 -3 -3 -31 -19 -62 -35 -77 -40 -140 -96
-185 -164 -32 -48 -38 -66 -41 -123 -4 -66 11 -141 43 -219 28 -68 38 -95 40
-113 2 -20 42 -61 47 -47 2 5 9 6 16 1 10 -6 4 -17 -23 -44 l-36 -36 -17 37
c-9 20 -17 44 -18 52 -20 122 -53 216 -80 227 -7 3 -14 18 -14 33 0 51 -18 41
-24 -14 -8 -57 -27 -86 -76 -111 -34 -18 -38 -38 -11 -57 18 -13 18 -15 -9
-55 -16 -23 -26 -44 -23 -47 4 -3 2 -6 -4 -6 -17 0 -25 -32 -11 -42 10 -6 9
-8 -3 -8 -9 0 -20 7 -23 16 -3 8 -10 13 -15 9 -17 -10 -28 28 -25 80 5 70 44
176 84 225 l33 41 -2 172 c-1 95 2 201 8 237 6 36 17 115 26 176 11 77 27 141
54 210 62 159 194 379 295 492 31 34 56 72 56 83 0 25 88 129 109 129 9 0 46
29 82 63 90 85 101 93 204 157 94 58 111 66 240 111 116 40 269 51 530 39 217
-10 263 -16 425 -51 250 -55 361 -103 480 -210 30 -27 58 -49 62 -49 17 0 31
192 17 228 -11 27 -22 141 -35 357 -6 109 -6 110 20 140 30 34 32 45 11 45 -8
0 -15 7 -15 15 0 13 -245 15 -2145 15 l-2145 0 0 -3380z m6036 1789 c8 -6 14
-21 14 -33 0 -23 -43 -79 -54 -69 -3 3 -6 -5 -6 -20 0 -14 5 -29 10 -32 11 -7
13 -57 4 -92 -8 -31 -65 -41 -99 -19 -36 24 -35 89 1 127 21 22 24 31 15 47
-14 26 -4 83 18 100 18 15 75 10 97 -9z m-1722 -268 c43 -11 103 -32 132 -46
48 -23 54 -29 55 -58 1 -18 3 -43 5 -57 8 -71 14 -519 7 -544 -6 -21 -23 -36
-58 -55 -28 -14 -51 -29 -53 -33 -2 -4 -22 -8 -43 -8 -22 0 -38 -4 -35 -9 10
-16 -37 -23 -180 -26 -116 -3 -151 -1 -200 15 -32 10 -78 24 -101 30 -65 16
-167 123 -217 225 -21 44 -41 74 -43 67 -6 -16 21 -75 42 -92 8 -7 15 -17 15
-23 0 -28 44 -97 81 -126 22 -18 38 -35 35 -38 -9 -10 -80 59 -111 107 -16 26
-43 72 -60 104 -25 48 -28 60 -17 76 17 27 15 48 -7 113 -11 32 -16 57 -10 57
5 0 9 19 9 43 0 59 27 145 57 186 45 59 139 93 323 115 90 10 297 -2 374 -23z
m2678 8 c13 -5 29 -23 37 -39 11 -26 10 -33 -9 -60 -41 -57 -145 -38 -135 25
10 71 51 100 107 74z m-5009 -518 c9 -118 15 -217 12 -219 -5 -6 -43 72 -72
151 -37 102 -41 165 -13 224 27 58 41 76 50 66 4 -4 14 -105 23 -222z m2946
21 c18 -11 26 -12 29 -4 11 35 55 -13 96 -105 18 -40 18 -44 2 -68 -9 -14 -27
-30 -39 -34 -35 -14 -50 -37 -67 -109 -9 -36 -22 -68 -30 -70 -10 -4 -11 3 -7
28 4 18 7 42 7 54 0 12 18 43 40 70 43 52 57 112 23 99 -17 -6 -17 -6 0 11 17
17 16 19 -10 51 -16 19 -35 43 -43 54 -8 12 -24 22 -35 24 -11 1 -29 8 -40 15
-17 10 -15 11 15 6 19 -4 46 -13 59 -22z m-3039 -219 c13 -47 -6 -271 -25
-291 -10 -11 -19 -1 -48 52 -30 53 -37 79 -42 140 l-5 76 35 14 c19 8 38 22
41 31 11 27 33 16 44 -22z m2848 -98 c27 -12 29 -31 4 -37 -15 -4 -17 -13 -14
-42 2 -19 8 -34 12 -31 4 3 10 -3 12 -13 5 -18 12 -153 12 -227 0 -87 -37
-412 -49 -423 -11 -11 -18 10 -22 70 -2 35 -5 73 -6 84 -1 12 -9 30 -18 40
-20 22 -36 124 -21 124 6 0 12 -8 15 -17 3 -14 6 -11 12 10 5 19 1 42 -14 77
-11 27 -21 54 -21 61 0 19 -50 79 -66 79 -7 0 -14 5 -14 10 0 6 -17 19 -37 28
-48 22 -123 72 -123 83 0 4 -3 15 -7 25 -5 13 -3 16 10 11 19 -7 42 17 31 34
-5 9 10 10 59 5 79 -9 116 5 174 65 36 37 38 38 43 17 3 -13 16 -27 28 -33z
m203 -227 c8 -33 14 -38 39 -38 37 0 72 -42 64 -76 -5 -19 -2 -24 11 -24 17 0
17 -1 0 -20 -18 -19 -18 -23 -2 -74 9 -29 16 -77 16 -107 l-2 -54 -7 45 c-16
100 -34 195 -37 200 -6 6 -83 -81 -83 -94 0 -6 -4 -5 -9 3 -8 12 -12 12 -26
-2 -9 -9 -23 -21 -33 -26 -9 -5 -16 -22 -17 -38 0 -21 -5 -28 -20 -28 -16 0
-19 6 -17 30 6 54 52 192 73 216 16 18 18 31 13 66 -4 28 -1 55 7 76 14 31 14
31 17 7 1 -14 7 -42 13 -62z m-951 -1803 c13 -35 -6 -82 -41 -101 -16 -8 -33
-12 -38 -10 -5 3 -15 -2 -22 -11 -17 -20 -77 -46 -89 -38 -5 3 -27 -4 -50 -16
-29 -16 -63 -23 -113 -24 -40 -2 -80 -6 -89 -10 -9 -4 -54 -4 -100 -1 -46 3
-100 5 -122 5 -21 0 -53 9 -70 19 -18 11 -49 22 -69 26 -21 4 -44 17 -56 32
-11 14 -21 20 -23 13 -3 -9 -12 -7 -30 5 -33 21 -41 42 -28 67 9 16 14 17 31
8 15 -8 24 -8 32 0 16 16 97 14 98 -1 0 -10 2 -10 6 0 3 7 25 12 58 12 34 0
55 -5 58 -12 4 -10 7 -10 18 0 8 8 44 12 101 12 l87 0 13 -42 13 -43 5 40 5
40 90 9 c76 7 91 6 99 -7 9 -13 11 -12 21 6 8 17 21 23 53 25 25 2 50 -2 59
-9 11 -9 16 -10 22 -1 5 9 39 27 59 31 1 1 7 -10 12 -24z"/>
<path d="M3055 8714 c-16 -2 -77 -9 -135 -15 -58 -6 -141 -19 -185 -29 -105
-24 -282 -87 -317 -111 -15 -11 -53 -31 -84 -46 -41 -19 -84 -53 -148 -117
-79 -79 -98 -105 -143 -196 -28 -58 -61 -131 -72 -161 -33 -86 -53 -256 -46
-384 8 -141 10 -146 38 -112 20 25 178 127 196 127 4 0 27 14 50 31 39 27 77
51 127 77 11 5 69 29 129 52 61 23 160 67 220 98 96 48 239 101 271 102 16 0
62 -164 81 -287 3 -21 11 -33 20 -33 12 0 13 7 8 28 -4 15 -18 80 -31 145 -23
110 -24 121 -9 143 11 17 12 24 3 24 -21 0 34 49 68 60 23 8 38 8 51 1 10 -6
39 -20 64 -30 44 -18 48 -23 67 -83 18 -56 40 -151 56 -245 6 -37 -3 -41 -50
-23 -29 11 -119 -4 -139 -23 -6 -6 -1 -7 15 -3 66 17 83 19 76 8 -11 -18 120
-15 185 4 73 21 82 33 23 31 l-49 -2 -41 165 c-26 104 -38 169 -33 176 5 7 22
14 37 17 42 9 202 86 202 97 0 6 -6 23 -14 38 -7 15 -21 65 -30 112 -22 109
-41 162 -85 229 -72 111 -195 155 -376 135z"/>
<path d="M2555 7703 c4 -10 18 -45 30 -78 25 -69 56 -138 66 -145 3 -3 13 -18
22 -35 33 -64 158 -183 238 -226 13 -7 29 -19 35 -28 10 -13 14 -9 23 24 15
52 34 199 32 248 -1 22 -9 57 -18 78 -8 22 -13 42 -10 45 6 6 35 -45 48 -86 6
-17 7 -10 3 20 -7 52 -30 87 -82 128 -66 51 -155 72 -305 72 -81 0 -88 -2 -82
-17z"/>
<path d="M2012 5968 c-7 -7 -12 -19 -12 -27 0 -8 -12 -30 -27 -50 -21 -27 -28
-46 -27 -79 1 -38 7 -50 50 -93 69 -70 104 -67 78 6 -21 60 -18 128 6 150 25
23 25 24 -3 55 -38 43 -52 51 -65 38z"/>
<path d="M5187 3579 c-12 -43 -7 -76 12 -93 20 -19 33 -63 20 -71 -4 -3 -10
-1 -14 5 -8 14 -45 13 -45 -1 0 -6 23 -32 50 -58 28 -26 50 -55 50 -64 0 -21
-16 -22 -27 -2 -10 17 -73 65 -85 65 -33 0 24 -81 91 -129 17 -12 31 -31 31
-42 0 -10 -2 -19 -4 -19 -2 0 -30 26 -61 59 -41 40 -64 57 -77 53 -28 -7 -22
-29 17 -65 20 -18 52 -47 71 -64 20 -18 42 -33 49 -33 12 0 25 -21 25 -39 0
-5 -12 -6 -26 -3 -24 4 -26 2 -19 -19 4 -13 13 -30 19 -38 9 -11 8 -13 -4 -9
-8 2 -21 17 -28 32 -8 15 -20 30 -28 33 -8 3 -12 8 -10 12 4 6 -20 10 -76 13
-16 0 -28 6 -28 12 0 6 -3 22 -7 35 -6 22 -4 23 26 16 35 -8 37 -4 15 30 -27
42 -48 31 -95 -47 -24 -40 -47 -84 -51 -98 -13 -42 17 -199 43 -226 22 -23 23
-31 23 -242 1 -213 -2 -239 -39 -397 -32 -136 -42 -226 -29 -271 13 -42 11
-66 -20 -244 -9 -53 -15 -156 -15 -276 l-1 -190 -30 -40 c-16 -21 -30 -46 -30
-54 0 -8 -9 -21 -20 -28 -11 -7 -20 -19 -20 -26 0 -8 -16 -31 -35 -52 -19 -20
-35 -43 -35 -50 0 -7 -12 -22 -26 -33 -21 -17 -28 -32 -32 -71 -2 -28 -7 -50
-11 -50 -5 0 -6 -143 -2 -222 1 -13 9 -18 32 -18 17 0 37 -7 45 -15 10 -10 20
-12 32 -5 9 5 28 11 42 14 14 3 30 15 35 28 6 13 18 24 27 26 29 5 42 -62 30
-149 -17 -125 -61 -341 -81 -399 l-18 -55 220 -3 c121 -1 221 -1 223 0 6 7 13
116 19 283 6 197 18 413 40 720 8 110 17 252 20 315 3 63 8 162 11 220 17 301
-1 1263 -26 1428 -27 177 -33 213 -47 287 -19 99 -68 266 -92 313 -17 34 -18
34 -24 11z"/>
<path d="M4749 2768 c-116 -110 -230 -198 -283 -218 -23 -8 -26 -15 -26 -59 0
-53 10 -69 32 -49 21 20 56 38 73 38 8 0 15 4 15 9 0 13 56 71 69 71 6 0 11 9
11 20 0 10 8 24 19 29 17 9 39 40 78 105 6 10 19 23 27 28 9 5 16 17 16 28 0
10 6 20 13 23 6 2 9 7 6 11 -3 3 -26 -13 -50 -36z"/>
<path d="M2273 2626 c15 -14 34 -26 44 -28 10 -2 18 -10 18 -18 0 -8 21 -25
48 -38 26 -13 53 -32 60 -42 6 -11 15 -20 19 -20 3 0 46 -29 93 -65 104 -79
183 -119 201 -104 8 7 14 7 19 -1 3 -5 31 -10 61 -10 30 0 68 -7 85 -15 16 -9
33 -13 38 -10 5 2 28 -2 52 -10 43 -16 123 -12 134 5 5 9 -144 104 -200 128
-16 7 -43 23 -60 36 -36 27 -105 50 -195 65 -68 11 -215 55 -234 70 -6 4 -44
21 -84 36 -40 16 -75 32 -78 37 -3 4 -15 8 -26 8 -20 0 -19 -1 5 -24z"/>
<path d="M4340 2473 c0 -5 -21 -25 -47 -43 -27 -19 -50 -37 -53 -40 -3 -3 -27
-20 -54 -38 -27 -18 -44 -32 -38 -32 22 0 12 -15 -18 -28 -42 -19 -41 -51 3
-54 71 -3 103 6 77 22 -11 7 -2 10 30 10 45 1 80 17 80 39 0 6 4 11 9 11 9 0
25 149 17 158 -4 3 -6 1 -6 -5z"/>
<path d="M960 1580 c0 -32 44 -132 66 -151 8 -6 14 -17 14 -23 0 -6 9 -19 20
-29 11 -9 20 -23 20 -31 0 -7 8 -24 18 -37 43 -57 57 -187 20 -181 -23 4 -23
7 13 -83 56 -140 59 -247 8 -301 l-23 -24 -21 20 c-12 12 -39 25 -59 31 -20 6
-34 14 -31 20 4 6 -29 9 -86 8 -102 -1 -119 -5 -119 -24 0 -7 -7 -15 -15 -19
-19 -7 -20 -70 -1 -88 7 -8 23 -33 35 -56 12 -23 34 -49 49 -59 49 -31 91 -81
104 -123 7 -23 20 -45 28 -48 23 -8 80 -69 80 -85 0 -7 11 -24 25 -37 13 -12
22 -28 18 -34 -3 -6 -2 -8 2 -3 13 12 75 -54 75 -80 0 -13 5 -23 11 -23 5 0 7
5 4 10 -3 6 -2 10 3 10 12 0 42 -34 42 -48 0 -7 5 -12 10 -12 6 0 10 -18 10
-40 l0 -40 171 0 c159 0 171 1 164 18 -4 9 -10 28 -13 42 -3 14 -13 36 -22 50
-10 14 -23 44 -29 67 -6 23 -18 49 -26 57 -9 8 -27 37 -40 65 -14 28 -30 53
-35 56 -6 3 -10 13 -10 22 0 8 -13 35 -30 60 -16 24 -30 46 -30 49 0 3 -15 38
-34 77 -18 40 -41 97 -50 127 -10 30 -22 69 -27 85 -6 17 -15 91 -20 165 -10
127 -29 277 -46 364 -7 35 -10 37 -22 23 -7 -10 -17 -17 -22 -17 -13 0 -56 71
-67 111 -8 30 -41 86 -97 167 -22 30 -35 28 -35 -8z"/>
<path d="M6442 571 c-12 -22 -26 -41 -30 -43 -8 -3 -78 -108 -99 -147 -19 -34
-17 -42 27 -115 22 -36 40 -68 40 -71 0 -3 5 -11 10 -18 55 -66 91 -120 90
-134 -5 -43 -4 -43 123 -43 l124 0 11 51 c22 93 12 129 -34 129 -12 0 -27 -6
-33 -14 -8 -9 -25 -12 -57 -8 -37 4 -49 1 -56 -12 -8 -13 -13 -15 -24 -5 -16
13 -20 99 -4 99 17 0 11 67 -10 122 -11 29 -20 68 -20 86 0 17 -4 32 -10 32
-5 0 -10 6 -10 14 0 8 -6 16 -12 19 -10 3 -10 9 0 26 14 23 16 71 4 71 -5 0
-18 -18 -30 -39z"/>
<path d="M949 308 c-16 -36 -42 -51 -37 -22 2 13 -2 18 -14 16 -10 -2 -18 2
-18 8 0 5 -18 10 -40 10 -22 0 -40 -4 -40 -10 0 -6 -47 -10 -120 -10 -73 0
-120 -4 -120 -10 0 -5 -20 -10 -43 -10 -65 0 -77 -19 -77 -118 l0 -82 -30 0
c-33 0 -37 -11 -20 -54 l10 -26 335 0 c184 0 335 3 335 6 0 7 -48 195 -62 246
-6 20 -18 48 -28 62 l-16 26 -15 -32z"/>
</g>
</svg>
